<svg width="638" height="132" viewBox="0 0 638 132" xmlns="http://www.w3.org/2000/svg"><title>Group</title><g fill="#FFFFFE" fill-rule="evenodd"><path d="M562.047 104.11h8.022v-47.7h-8.023M562.047 50.196h8.022v-8.022h-8.023M191.818 41.718c-8.718 0-18.023 3.427-18.023 11.753 0 7.445 8.52 9.6 18.61 11.265 13.713 2.155 27.23 4.898 27.23 20.374-.098 15.377-14.79 20.372-27.916 20.372-12.147 0-23.704-4.408-28.994-15.868l7.052-4.114c4.41 8.13 13.615 12.048 22.04 12.048 8.325 0 19.393-2.644 19.393-12.733.1-8.522-9.5-10.97-19.785-12.537-13.223-2.058-26.054-5.094-26.054-19.003-.195-14.3 14.4-19.198 26.25-19.198 10.188 0 19.885 2.057 25.957 12.44l-6.464 4.016c-3.722-5.975-11.656-8.718-19.295-8.815M234.118 35.678v28.11c4.114-6.366 10.578-8.52 16.75-8.62 13.614 0 20.274 9.012 20.274 22.333v26.643h-7.933V77.6c0-9.502-4.9-14.89-13.715-14.89s-15.28 6.956-15.28 15.77v25.663h-8.03V35.58h7.933v.098M303.094 62.58c-9.6 0-17.337 6.857-17.337 17.63 0 10.776 7.738 17.73 17.337 17.73 23.31 0 23.31-35.457.098-35.457l-.098.097zm17.63 41.726l-.196-8.815c-3.82 6.662-11.166 9.796-17.827 9.796-13.907 0-24.78-9.6-24.78-25.37 0-15.67 11.07-25.073 24.88-24.976 7.248 0 14.398 3.33 17.925 9.6l.097-8.816h7.836v48.387h-7.737l-.195.196zM378.766 80.21c0-10.87-7.15-17.336-17.043-17.336-10.09 0-16.946 7.445-16.946 17.337 0 9.894 7.15 17.338 16.946 17.436 9.697 0 17.043-6.562 17.043-17.435zM336.06 55.92h7.64l.392 9.305c3.82-6.464 10.97-10.187 18.61-10.187 13.91.294 24.096 10.09 24.096 24.977 0 15.28-10.09 25.173-24.586 25.173-6.856 0-14.496-2.938-18.316-9.795v31.54h-7.836V55.92zM433.665 76.39c-.392-9.402-6.856-14.495-16.358-14.495-8.423 0-15.77 5.093-17.14 14.398h33.498v.098zm4.702 19.983c-4.898 5.78-13.32 8.62-20.864 8.62-14.985 0-25.466-9.894-25.466-25.272 0-14.593 10.48-25.073 25.075-25.073 14.79 0 26.054 9.11 24.193 28.405h-41.138c.88 8.913 8.227 14.496 17.532 14.496 5.485 0 12.145-2.155 15.377-6.073l5.387 4.898h-.097zM474.87 41.718c-8.717 0-18.02 3.427-18.02 11.753 0 7.445 8.52 9.6 18.608 11.265 13.714 2.155 27.23 4.898 27.23 20.374-.098 15.377-14.79 20.372-27.915 20.372-12.146 0-23.704-4.408-28.993-15.868l7.052-4.114c4.408 8.13 13.615 12.048 22.04 12.048 8.324 0 19.392-2.644 19.392-12.733.098-8.522-9.5-10.97-19.785-12.537-13.225-2.058-26.056-5.094-26.056-19.003-.195-14.3 14.4-19.198 26.25-19.198 10.187 0 19.885 2.057 25.957 12.44l-6.463 4.016c-3.723-5.975-11.656-8.718-19.296-8.815M517 35.645v28.11c4.114-6.366 10.578-8.52 16.75-8.618 13.613 0 20.274 9.01 20.274 22.33v26.644h-7.933V77.568c0-9.5-4.897-14.89-13.712-14.89-8.816 0-15.28 6.956-15.28 15.77v25.664h-8.032V35.548H517v.098M585.4 104.356v-.098h-.098l.098.098M594.91 52.492c0-7.248 3.33-10.48 8.52-10.48.104 0 .2.01.304.012l1.807-6.903c-.76-.097-1.527-.16-2.306-.16-10.186 0-16.26 6.464-16.26 17.532v3.82h-9.5v7.052h9.5v40.747h7.935V63.365h9.61v-7.052h-9.61v-3.82M635.845 97.39c-.635.1-1.26.158-1.86.158-5.78 0-7.64-3.624-7.64-9.305v-24.94h10.307v-6.96h-10.21V41.62l-8.033.88v13.844h-9.697v6.96h9.696v24.94c0 10.675 4.898 16.748 15.28 16.553 1.28-.04 2.515-.19 3.74-.445l-1.585-6.963M111.91 11.723l-5.8 34.77-20.616-24.267 26.416-10.503zm-5.674 49.723l5.16 19.056-39.462 10.87 34.302-29.926zM20.33 51.87l21.158-27.644H78.23l23.486 27.643H20.33zm78.666 6.83L60.74 92.07 21.772 58.7h77.223zM34.403 22.245l-18.906 24.7-5.806-35.09 24.713 10.39zM49.408 91.36L9.568 80.51l5.46-18.594 34.38 29.444zm7.356 9.082l-7.52 8.275c-6.374-6.053-13.38-11.428-20.86-16.004l28.38 7.73zm36.478-7.855c-7.48 4.65-14.47 10.095-20.803 16.206l-7.68-8.362 28.482-7.843zM120.64.9L79.156 17.397H40.49L.934.766 9.92 55.07 1.29 84.467l22.513 13.46c10.66 6.372 20.207 14.346 28.378 23.698l8.767 10.033 9.2-10.55c7.894-9.055 17.087-16.827 27.323-23.102l22.078-13.54-7.95-29.354L120.64.9z"/></g></svg>